<mxfile host="app.diagrams.net" modified="2020-10-07T17:52:31.595Z" agent="5.0 (Windows NT 10.0; Win64; x64) AppleWebKit/537.36 (KHTML, like Gecko) Chrome/85.0.4183.121 Safari/537.36" etag="PBLEbXQJSpYUsglm_WXT" version="13.7.8" type="github">
  <diagram id="C5RBs43oDa-KdzZeNtuy" name="Page-1">
    <mxGraphModel dx="1447" dy="867" grid="1" gridSize="10" guides="1" tooltips="1" connect="1" arrows="1" fold="1" page="1" pageScale="1" pageWidth="827" pageHeight="1169" math="0" shadow="0">
      <root>
        <mxCell id="WIyWlLk6GJQsqaUBKTNV-0" />
        <mxCell id="WIyWlLk6GJQsqaUBKTNV-1" parent="WIyWlLk6GJQsqaUBKTNV-0" />
        <mxCell id="hZAb5yGBT-T0NqIuAjGt-6" style="edgeStyle=orthogonalEdgeStyle;rounded=0;orthogonalLoop=1;jettySize=auto;html=1;exitX=0.5;exitY=1;exitDx=0;exitDy=0;exitPerimeter=0;entryX=0.5;entryY=0;entryDx=0;entryDy=0;" edge="1" parent="WIyWlLk6GJQsqaUBKTNV-1" source="hZAb5yGBT-T0NqIuAjGt-1" target="hZAb5yGBT-T0NqIuAjGt-2">
          <mxGeometry relative="1" as="geometry" />
        </mxCell>
        <mxCell id="hZAb5yGBT-T0NqIuAjGt-1" value="Start" style="strokeWidth=2;html=1;shape=mxgraph.flowchart.terminator;whiteSpace=wrap;" vertex="1" parent="WIyWlLk6GJQsqaUBKTNV-1">
          <mxGeometry x="200" y="100" width="100" height="40" as="geometry" />
        </mxCell>
        <mxCell id="hZAb5yGBT-T0NqIuAjGt-7" style="edgeStyle=orthogonalEdgeStyle;rounded=0;orthogonalLoop=1;jettySize=auto;html=1;exitX=0.5;exitY=1;exitDx=0;exitDy=0;entryX=0.5;entryY=0;entryDx=0;entryDy=0;" edge="1" parent="WIyWlLk6GJQsqaUBKTNV-1" source="hZAb5yGBT-T0NqIuAjGt-2" target="hZAb5yGBT-T0NqIuAjGt-3">
          <mxGeometry relative="1" as="geometry" />
        </mxCell>
        <mxCell id="hZAb5yGBT-T0NqIuAjGt-2" value="Mahasiswa Datang Mengambil Formulir" style="rounded=1;whiteSpace=wrap;html=1;fontSize=12;glass=0;strokeWidth=1;shadow=0;" vertex="1" parent="WIyWlLk6GJQsqaUBKTNV-1">
          <mxGeometry x="190" y="180" width="120" height="40" as="geometry" />
        </mxCell>
        <mxCell id="hZAb5yGBT-T0NqIuAjGt-8" style="edgeStyle=orthogonalEdgeStyle;rounded=0;orthogonalLoop=1;jettySize=auto;html=1;exitX=0.5;exitY=1;exitDx=0;exitDy=0;entryX=0.5;entryY=0;entryDx=0;entryDy=0;" edge="1" parent="WIyWlLk6GJQsqaUBKTNV-1" source="hZAb5yGBT-T0NqIuAjGt-3" target="hZAb5yGBT-T0NqIuAjGt-4">
          <mxGeometry relative="1" as="geometry" />
        </mxCell>
        <mxCell id="hZAb5yGBT-T0NqIuAjGt-3" value="Mahasiswa Mengisi Formulir" style="rounded=1;whiteSpace=wrap;html=1;fontSize=12;glass=0;strokeWidth=1;shadow=0;" vertex="1" parent="WIyWlLk6GJQsqaUBKTNV-1">
          <mxGeometry x="190" y="260" width="120" height="40" as="geometry" />
        </mxCell>
        <mxCell id="hZAb5yGBT-T0NqIuAjGt-9" style="edgeStyle=orthogonalEdgeStyle;rounded=0;orthogonalLoop=1;jettySize=auto;html=1;exitX=0.5;exitY=1;exitDx=0;exitDy=0;entryX=0.5;entryY=0;entryDx=0;entryDy=0;entryPerimeter=0;" edge="1" parent="WIyWlLk6GJQsqaUBKTNV-1" source="hZAb5yGBT-T0NqIuAjGt-4" target="hZAb5yGBT-T0NqIuAjGt-5">
          <mxGeometry relative="1" as="geometry" />
        </mxCell>
        <mxCell id="hZAb5yGBT-T0NqIuAjGt-4" value="Formulir dimasukkan" style="shape=parallelogram;html=1;strokeWidth=2;perimeter=parallelogramPerimeter;whiteSpace=wrap;rounded=1;arcSize=12;size=0.23;" vertex="1" parent="WIyWlLk6GJQsqaUBKTNV-1">
          <mxGeometry x="170" y="340" width="160" height="50" as="geometry" />
        </mxCell>
        <mxCell id="hZAb5yGBT-T0NqIuAjGt-11" style="edgeStyle=orthogonalEdgeStyle;rounded=0;orthogonalLoop=1;jettySize=auto;html=1;exitX=1;exitY=0.5;exitDx=0;exitDy=0;exitPerimeter=0;entryX=0.5;entryY=0;entryDx=0;entryDy=0;" edge="1" parent="WIyWlLk6GJQsqaUBKTNV-1" source="hZAb5yGBT-T0NqIuAjGt-5" target="hZAb5yGBT-T0NqIuAjGt-10">
          <mxGeometry relative="1" as="geometry" />
        </mxCell>
        <mxCell id="hZAb5yGBT-T0NqIuAjGt-13" value="YA" style="edgeLabel;html=1;align=center;verticalAlign=middle;resizable=0;points=[];" vertex="1" connectable="0" parent="hZAb5yGBT-T0NqIuAjGt-11">
          <mxGeometry x="-0.9181" y="2" relative="1" as="geometry">
            <mxPoint as="offset" />
          </mxGeometry>
        </mxCell>
        <mxCell id="hZAb5yGBT-T0NqIuAjGt-15" style="edgeStyle=orthogonalEdgeStyle;rounded=0;orthogonalLoop=1;jettySize=auto;html=1;exitX=0.5;exitY=1;exitDx=0;exitDy=0;exitPerimeter=0;entryX=0.5;entryY=0;entryDx=0;entryDy=0;" edge="1" parent="WIyWlLk6GJQsqaUBKTNV-1" source="hZAb5yGBT-T0NqIuAjGt-5" target="hZAb5yGBT-T0NqIuAjGt-14">
          <mxGeometry relative="1" as="geometry" />
        </mxCell>
        <mxCell id="hZAb5yGBT-T0NqIuAjGt-5" value="Apakah sudah bayar?" style="strokeWidth=2;html=1;shape=mxgraph.flowchart.decision;whiteSpace=wrap;" vertex="1" parent="WIyWlLk6GJQsqaUBKTNV-1">
          <mxGeometry x="200" y="460" width="100" height="100" as="geometry" />
        </mxCell>
        <mxCell id="hZAb5yGBT-T0NqIuAjGt-10" value="Mahasiswa Didaftarkan" style="rounded=1;whiteSpace=wrap;html=1;fontSize=12;glass=0;strokeWidth=1;shadow=0;" vertex="1" parent="WIyWlLk6GJQsqaUBKTNV-1">
          <mxGeometry x="460" y="310" width="150" height="40" as="geometry" />
        </mxCell>
        <mxCell id="hZAb5yGBT-T0NqIuAjGt-22" style="edgeStyle=orthogonalEdgeStyle;rounded=0;orthogonalLoop=1;jettySize=auto;html=1;exitX=0;exitY=0.5;exitDx=0;exitDy=0;" edge="1" parent="WIyWlLk6GJQsqaUBKTNV-1" source="hZAb5yGBT-T0NqIuAjGt-14">
          <mxGeometry relative="1" as="geometry">
            <mxPoint x="250" y="410" as="targetPoint" />
            <Array as="points">
              <mxPoint x="155" y="650" />
              <mxPoint x="155" y="410" />
            </Array>
          </mxGeometry>
        </mxCell>
        <mxCell id="hZAb5yGBT-T0NqIuAjGt-14" value="Mahasiswa Membayar biaya pendaftaran" style="rounded=1;whiteSpace=wrap;html=1;fontSize=12;glass=0;strokeWidth=1;shadow=0;" vertex="1" parent="WIyWlLk6GJQsqaUBKTNV-1">
          <mxGeometry x="175" y="630" width="150" height="40" as="geometry" />
        </mxCell>
        <mxCell id="hZAb5yGBT-T0NqIuAjGt-23" value="Tidak" style="text;html=1;align=center;verticalAlign=middle;resizable=0;points=[];autosize=1;" vertex="1" parent="WIyWlLk6GJQsqaUBKTNV-1">
          <mxGeometry x="250" y="570" width="40" height="20" as="geometry" />
        </mxCell>
        <mxCell id="hZAb5yGBT-T0NqIuAjGt-24" value="FLOWCHART SISTEM" style="text;html=1;align=center;verticalAlign=middle;resizable=0;points=[];autosize=1;" vertex="1" parent="WIyWlLk6GJQsqaUBKTNV-1">
          <mxGeometry x="60" y="50" width="140" height="20" as="geometry" />
        </mxCell>
        <mxCell id="hZAb5yGBT-T0NqIuAjGt-31" style="edgeStyle=orthogonalEdgeStyle;rounded=0;orthogonalLoop=1;jettySize=auto;html=1;exitX=0.5;exitY=1;exitDx=0;exitDy=0;exitPerimeter=0;entryX=0.5;entryY=0;entryDx=0;entryDy=0;" edge="1" parent="WIyWlLk6GJQsqaUBKTNV-1" source="hZAb5yGBT-T0NqIuAjGt-25" target="hZAb5yGBT-T0NqIuAjGt-26">
          <mxGeometry relative="1" as="geometry" />
        </mxCell>
        <mxCell id="hZAb5yGBT-T0NqIuAjGt-25" value="Start" style="strokeWidth=2;html=1;shape=mxgraph.flowchart.terminator;whiteSpace=wrap;" vertex="1" parent="WIyWlLk6GJQsqaUBKTNV-1">
          <mxGeometry x="800" y="100" width="100" height="40" as="geometry" />
        </mxCell>
        <mxCell id="hZAb5yGBT-T0NqIuAjGt-32" style="edgeStyle=orthogonalEdgeStyle;rounded=0;orthogonalLoop=1;jettySize=auto;html=1;exitX=0.5;exitY=1;exitDx=0;exitDy=0;entryX=0.5;entryY=0;entryDx=0;entryDy=0;" edge="1" parent="WIyWlLk6GJQsqaUBKTNV-1" source="hZAb5yGBT-T0NqIuAjGt-26" target="hZAb5yGBT-T0NqIuAjGt-27">
          <mxGeometry relative="1" as="geometry" />
        </mxCell>
        <mxCell id="hZAb5yGBT-T0NqIuAjGt-26" value="Masuk ke halaman pendaftaran" style="rounded=1;whiteSpace=wrap;html=1;fontSize=12;glass=0;strokeWidth=1;shadow=0;" vertex="1" parent="WIyWlLk6GJQsqaUBKTNV-1">
          <mxGeometry x="790" y="170" width="120" height="40" as="geometry" />
        </mxCell>
        <mxCell id="hZAb5yGBT-T0NqIuAjGt-33" style="edgeStyle=orthogonalEdgeStyle;rounded=0;orthogonalLoop=1;jettySize=auto;html=1;exitX=0.5;exitY=1;exitDx=0;exitDy=0;entryX=0.631;entryY=0.02;entryDx=0;entryDy=0;entryPerimeter=0;" edge="1" parent="WIyWlLk6GJQsqaUBKTNV-1" source="hZAb5yGBT-T0NqIuAjGt-27" target="hZAb5yGBT-T0NqIuAjGt-28">
          <mxGeometry relative="1" as="geometry" />
        </mxCell>
        <mxCell id="hZAb5yGBT-T0NqIuAjGt-27" value="Input Biodata" style="shape=parallelogram;html=1;strokeWidth=2;perimeter=parallelogramPerimeter;whiteSpace=wrap;rounded=1;arcSize=12;size=0.23;" vertex="1" parent="WIyWlLk6GJQsqaUBKTNV-1">
          <mxGeometry x="770" y="240" width="160" height="50" as="geometry" />
        </mxCell>
        <mxCell id="hZAb5yGBT-T0NqIuAjGt-34" style="edgeStyle=orthogonalEdgeStyle;rounded=0;orthogonalLoop=1;jettySize=auto;html=1;exitX=0.5;exitY=1;exitDx=0;exitDy=0;entryX=0.5;entryY=0;entryDx=0;entryDy=0;" edge="1" parent="WIyWlLk6GJQsqaUBKTNV-1" source="hZAb5yGBT-T0NqIuAjGt-28" target="hZAb5yGBT-T0NqIuAjGt-29">
          <mxGeometry relative="1" as="geometry" />
        </mxCell>
        <mxCell id="hZAb5yGBT-T0NqIuAjGt-28" value="Kertas Pendaftaran" style="shape=parallelogram;html=1;strokeWidth=2;perimeter=parallelogramPerimeter;whiteSpace=wrap;rounded=1;arcSize=12;size=0.23;" vertex="1" parent="WIyWlLk6GJQsqaUBKTNV-1">
          <mxGeometry x="750" y="320" width="160" height="50" as="geometry" />
        </mxCell>
        <mxCell id="hZAb5yGBT-T0NqIuAjGt-35" style="edgeStyle=orthogonalEdgeStyle;rounded=0;orthogonalLoop=1;jettySize=auto;html=1;exitX=1;exitY=0.5;exitDx=0;exitDy=0;entryX=0.5;entryY=0;entryDx=0;entryDy=0;entryPerimeter=0;" edge="1" parent="WIyWlLk6GJQsqaUBKTNV-1" source="hZAb5yGBT-T0NqIuAjGt-29" target="hZAb5yGBT-T0NqIuAjGt-30">
          <mxGeometry relative="1" as="geometry" />
        </mxCell>
        <mxCell id="hZAb5yGBT-T0NqIuAjGt-29" value="Konfirmasi Pembayaran" style="rounded=1;whiteSpace=wrap;html=1;fontSize=12;glass=0;strokeWidth=1;shadow=0;" vertex="1" parent="WIyWlLk6GJQsqaUBKTNV-1">
          <mxGeometry x="770" y="420" width="120" height="40" as="geometry" />
        </mxCell>
        <mxCell id="hZAb5yGBT-T0NqIuAjGt-37" style="edgeStyle=orthogonalEdgeStyle;rounded=0;orthogonalLoop=1;jettySize=auto;html=1;exitX=1;exitY=0.5;exitDx=0;exitDy=0;exitPerimeter=0;" edge="1" parent="WIyWlLk6GJQsqaUBKTNV-1" source="hZAb5yGBT-T0NqIuAjGt-30" target="hZAb5yGBT-T0NqIuAjGt-36">
          <mxGeometry relative="1" as="geometry" />
        </mxCell>
        <mxCell id="hZAb5yGBT-T0NqIuAjGt-39" style="edgeStyle=orthogonalEdgeStyle;rounded=0;orthogonalLoop=1;jettySize=auto;html=1;exitX=0.5;exitY=1;exitDx=0;exitDy=0;exitPerimeter=0;entryX=0;entryY=0.5;entryDx=0;entryDy=0;" edge="1" parent="WIyWlLk6GJQsqaUBKTNV-1" source="hZAb5yGBT-T0NqIuAjGt-30" target="hZAb5yGBT-T0NqIuAjGt-29">
          <mxGeometry relative="1" as="geometry">
            <Array as="points">
              <mxPoint x="1060" y="500" />
              <mxPoint x="750" y="500" />
              <mxPoint x="750" y="440" />
            </Array>
          </mxGeometry>
        </mxCell>
        <mxCell id="hZAb5yGBT-T0NqIuAjGt-40" value="TIDAK" style="edgeLabel;html=1;align=center;verticalAlign=middle;resizable=0;points=[];" vertex="1" connectable="0" parent="hZAb5yGBT-T0NqIuAjGt-39">
          <mxGeometry x="-0.9" y="-1" relative="1" as="geometry">
            <mxPoint as="offset" />
          </mxGeometry>
        </mxCell>
        <mxCell id="hZAb5yGBT-T0NqIuAjGt-30" value="Sudab Bayar?" style="strokeWidth=2;html=1;shape=mxgraph.flowchart.decision;whiteSpace=wrap;" vertex="1" parent="WIyWlLk6GJQsqaUBKTNV-1">
          <mxGeometry x="1010" y="210" width="100" height="100" as="geometry" />
        </mxCell>
        <mxCell id="hZAb5yGBT-T0NqIuAjGt-42" style="edgeStyle=orthogonalEdgeStyle;rounded=0;orthogonalLoop=1;jettySize=auto;html=1;exitX=0.5;exitY=1;exitDx=0;exitDy=0;" edge="1" parent="WIyWlLk6GJQsqaUBKTNV-1" source="hZAb5yGBT-T0NqIuAjGt-36" target="hZAb5yGBT-T0NqIuAjGt-41">
          <mxGeometry relative="1" as="geometry" />
        </mxCell>
        <mxCell id="hZAb5yGBT-T0NqIuAjGt-36" value="Kartu Mahasiswa" style="shape=parallelogram;html=1;strokeWidth=2;perimeter=parallelogramPerimeter;whiteSpace=wrap;rounded=1;arcSize=12;size=0.23;" vertex="1" parent="WIyWlLk6GJQsqaUBKTNV-1">
          <mxGeometry x="1161" y="235" width="160" height="50" as="geometry" />
        </mxCell>
        <mxCell id="hZAb5yGBT-T0NqIuAjGt-38" value="YA" style="text;html=1;align=center;verticalAlign=middle;resizable=0;points=[];autosize=1;" vertex="1" parent="WIyWlLk6GJQsqaUBKTNV-1">
          <mxGeometry x="1115" y="260" width="30" height="20" as="geometry" />
        </mxCell>
        <mxCell id="hZAb5yGBT-T0NqIuAjGt-41" value="END" style="strokeWidth=2;html=1;shape=mxgraph.flowchart.terminator;whiteSpace=wrap;" vertex="1" parent="WIyWlLk6GJQsqaUBKTNV-1">
          <mxGeometry x="1191" y="320" width="100" height="40" as="geometry" />
        </mxCell>
        <mxCell id="hZAb5yGBT-T0NqIuAjGt-43" value="FLOWCHART PROGRAM" style="text;html=1;align=center;verticalAlign=middle;resizable=0;points=[];autosize=1;" vertex="1" parent="WIyWlLk6GJQsqaUBKTNV-1">
          <mxGeometry x="690" y="50" width="160" height="20" as="geometry" />
        </mxCell>
        <mxCell id="hZAb5yGBT-T0NqIuAjGt-50" style="edgeStyle=orthogonalEdgeStyle;rounded=0;orthogonalLoop=1;jettySize=auto;html=1;exitX=0.5;exitY=1;exitDx=0;exitDy=0;exitPerimeter=0;entryX=0.5;entryY=0;entryDx=0;entryDy=0;" edge="1" parent="WIyWlLk6GJQsqaUBKTNV-1" source="hZAb5yGBT-T0NqIuAjGt-44" target="hZAb5yGBT-T0NqIuAjGt-45">
          <mxGeometry relative="1" as="geometry" />
        </mxCell>
        <mxCell id="hZAb5yGBT-T0NqIuAjGt-44" value="Start" style="strokeWidth=2;html=1;shape=mxgraph.flowchart.terminator;whiteSpace=wrap;" vertex="1" parent="WIyWlLk6GJQsqaUBKTNV-1">
          <mxGeometry x="1590" y="100" width="100" height="40" as="geometry" />
        </mxCell>
        <mxCell id="hZAb5yGBT-T0NqIuAjGt-51" style="edgeStyle=orthogonalEdgeStyle;rounded=0;orthogonalLoop=1;jettySize=auto;html=1;exitX=1;exitY=0.5;exitDx=0;exitDy=0;entryX=0;entryY=0.5;entryDx=0;entryDy=0;" edge="1" parent="WIyWlLk6GJQsqaUBKTNV-1" source="hZAb5yGBT-T0NqIuAjGt-45" target="hZAb5yGBT-T0NqIuAjGt-46">
          <mxGeometry relative="1" as="geometry" />
        </mxCell>
        <mxCell id="hZAb5yGBT-T0NqIuAjGt-45" value="Request Database bank BNI" style="rounded=1;whiteSpace=wrap;html=1;fontSize=12;glass=0;strokeWidth=1;shadow=0;" vertex="1" parent="WIyWlLk6GJQsqaUBKTNV-1">
          <mxGeometry x="1595" y="170" width="90" height="80" as="geometry" />
        </mxCell>
        <mxCell id="hZAb5yGBT-T0NqIuAjGt-52" style="edgeStyle=orthogonalEdgeStyle;rounded=0;orthogonalLoop=1;jettySize=auto;html=1;exitX=1;exitY=0.5;exitDx=0;exitDy=0;entryX=0;entryY=0.5;entryDx=0;entryDy=0;" edge="1" parent="WIyWlLk6GJQsqaUBKTNV-1" source="hZAb5yGBT-T0NqIuAjGt-46" target="hZAb5yGBT-T0NqIuAjGt-48">
          <mxGeometry relative="1" as="geometry" />
        </mxCell>
        <mxCell id="hZAb5yGBT-T0NqIuAjGt-46" value="Cek Rek Kampus" style="rounded=1;whiteSpace=wrap;html=1;fontSize=12;glass=0;strokeWidth=1;shadow=0;" vertex="1" parent="WIyWlLk6GJQsqaUBKTNV-1">
          <mxGeometry x="1730" y="170" width="90" height="80" as="geometry" />
        </mxCell>
        <mxCell id="hZAb5yGBT-T0NqIuAjGt-53" style="edgeStyle=orthogonalEdgeStyle;rounded=0;orthogonalLoop=1;jettySize=auto;html=1;exitX=0.5;exitY=1;exitDx=0;exitDy=0;entryX=0.5;entryY=0;entryDx=0;entryDy=0;entryPerimeter=0;" edge="1" parent="WIyWlLk6GJQsqaUBKTNV-1" source="hZAb5yGBT-T0NqIuAjGt-48" target="hZAb5yGBT-T0NqIuAjGt-49">
          <mxGeometry relative="1" as="geometry" />
        </mxCell>
        <mxCell id="hZAb5yGBT-T0NqIuAjGt-48" value="Cek Transaksi Akhir" style="rounded=1;whiteSpace=wrap;html=1;fontSize=12;glass=0;strokeWidth=1;shadow=0;" vertex="1" parent="WIyWlLk6GJQsqaUBKTNV-1">
          <mxGeometry x="1850" y="170" width="90" height="80" as="geometry" />
        </mxCell>
        <mxCell id="hZAb5yGBT-T0NqIuAjGt-54" style="edgeStyle=orthogonalEdgeStyle;rounded=0;orthogonalLoop=1;jettySize=auto;html=1;exitX=1;exitY=0.5;exitDx=0;exitDy=0;exitPerimeter=0;entryX=0.5;entryY=0;entryDx=0;entryDy=0;" edge="1" parent="WIyWlLk6GJQsqaUBKTNV-1" source="hZAb5yGBT-T0NqIuAjGt-49" target="hZAb5yGBT-T0NqIuAjGt-46">
          <mxGeometry relative="1" as="geometry">
            <Array as="points">
              <mxPoint x="2060" y="345" />
              <mxPoint x="2060" y="150" />
              <mxPoint x="1775" y="150" />
            </Array>
          </mxGeometry>
        </mxCell>
        <mxCell id="hZAb5yGBT-T0NqIuAjGt-55" value="Tidak" style="edgeLabel;html=1;align=center;verticalAlign=middle;resizable=0;points=[];" vertex="1" connectable="0" parent="hZAb5yGBT-T0NqIuAjGt-54">
          <mxGeometry x="-0.8732" y="2" relative="1" as="geometry">
            <mxPoint as="offset" />
          </mxGeometry>
        </mxCell>
        <mxCell id="hZAb5yGBT-T0NqIuAjGt-58" style="edgeStyle=orthogonalEdgeStyle;rounded=0;orthogonalLoop=1;jettySize=auto;html=1;exitX=0.5;exitY=1;exitDx=0;exitDy=0;exitPerimeter=0;" edge="1" parent="WIyWlLk6GJQsqaUBKTNV-1" source="hZAb5yGBT-T0NqIuAjGt-49" target="hZAb5yGBT-T0NqIuAjGt-56">
          <mxGeometry relative="1" as="geometry" />
        </mxCell>
        <mxCell id="hZAb5yGBT-T0NqIuAjGt-49" value="Ada Transaksi" style="strokeWidth=2;html=1;shape=mxgraph.flowchart.decision;whiteSpace=wrap;" vertex="1" parent="WIyWlLk6GJQsqaUBKTNV-1">
          <mxGeometry x="1845" y="295" width="100" height="100" as="geometry" />
        </mxCell>
        <mxCell id="hZAb5yGBT-T0NqIuAjGt-59" style="edgeStyle=orthogonalEdgeStyle;rounded=0;orthogonalLoop=1;jettySize=auto;html=1;exitX=0.5;exitY=1;exitDx=0;exitDy=0;entryX=0.5;entryY=0;entryDx=0;entryDy=0;" edge="1" parent="WIyWlLk6GJQsqaUBKTNV-1" source="hZAb5yGBT-T0NqIuAjGt-56" target="hZAb5yGBT-T0NqIuAjGt-57">
          <mxGeometry relative="1" as="geometry" />
        </mxCell>
        <mxCell id="hZAb5yGBT-T0NqIuAjGt-56" value="Cek Nama Pengirim dari Transaksi&lt;span style=&quot;color: rgba(0 , 0 , 0 , 0) ; font-family: monospace ; font-size: 0px&quot;&gt;%3CmxGraphModel%3E%3Croot%3E%3CmxCell%20id%3D%220%22%2F%3E%3CmxCell%20id%3D%221%22%20parent%3D%220%22%2F%3E%3CmxCell%20id%3D%222%22%20value%3D%22Cek%20Transaksi%20Akhir%22%20style%3D%22rounded%3D1%3BwhiteSpace%3Dwrap%3Bhtml%3D1%3BfontSize%3D12%3Bglass%3D0%3BstrokeWidth%3D1%3Bshadow%3D0%3B%22%20vertex%3D%221%22%20parent%3D%221%22%3E%3CmxGeometry%20x%3D%221850%22%20y%3D%22170%22%20width%3D%2290%22%20height%3D%2280%22%20as%3D%22geometry%22%2F%3E%3C%2FmxCell%3E%3C%2Froot%3E%3C%2FmxGraphModel%3E&lt;/span&gt;" style="rounded=1;whiteSpace=wrap;html=1;fontSize=12;glass=0;strokeWidth=1;shadow=0;" vertex="1" parent="WIyWlLk6GJQsqaUBKTNV-1">
          <mxGeometry x="1850" y="440" width="90" height="80" as="geometry" />
        </mxCell>
        <mxCell id="hZAb5yGBT-T0NqIuAjGt-63" style="edgeStyle=orthogonalEdgeStyle;rounded=0;orthogonalLoop=1;jettySize=auto;html=1;exitX=0.5;exitY=1;exitDx=0;exitDy=0;entryX=0.5;entryY=0;entryDx=0;entryDy=0;entryPerimeter=0;" edge="1" parent="WIyWlLk6GJQsqaUBKTNV-1" source="hZAb5yGBT-T0NqIuAjGt-57" target="hZAb5yGBT-T0NqIuAjGt-60">
          <mxGeometry relative="1" as="geometry" />
        </mxCell>
        <mxCell id="hZAb5yGBT-T0NqIuAjGt-57" value="Konfirmasi Pengirim" style="rounded=1;whiteSpace=wrap;html=1;fontSize=12;glass=0;strokeWidth=1;shadow=0;" vertex="1" parent="WIyWlLk6GJQsqaUBKTNV-1">
          <mxGeometry x="1850" y="560" width="90" height="80" as="geometry" />
        </mxCell>
        <mxCell id="hZAb5yGBT-T0NqIuAjGt-64" style="edgeStyle=orthogonalEdgeStyle;rounded=0;orthogonalLoop=1;jettySize=auto;html=1;exitX=1;exitY=0.5;exitDx=0;exitDy=0;exitPerimeter=0;" edge="1" parent="WIyWlLk6GJQsqaUBKTNV-1" source="hZAb5yGBT-T0NqIuAjGt-60" target="hZAb5yGBT-T0NqIuAjGt-61">
          <mxGeometry relative="1" as="geometry" />
        </mxCell>
        <mxCell id="hZAb5yGBT-T0NqIuAjGt-65" style="edgeStyle=orthogonalEdgeStyle;rounded=0;orthogonalLoop=1;jettySize=auto;html=1;exitX=0;exitY=0.5;exitDx=0;exitDy=0;exitPerimeter=0;" edge="1" parent="WIyWlLk6GJQsqaUBKTNV-1" source="hZAb5yGBT-T0NqIuAjGt-60" target="hZAb5yGBT-T0NqIuAjGt-62">
          <mxGeometry relative="1" as="geometry" />
        </mxCell>
        <mxCell id="hZAb5yGBT-T0NqIuAjGt-60" value="Konfirmasi Berhasil" style="strokeWidth=2;html=1;shape=mxgraph.flowchart.decision;whiteSpace=wrap;" vertex="1" parent="WIyWlLk6GJQsqaUBKTNV-1">
          <mxGeometry x="1845" y="690" width="100" height="100" as="geometry" />
        </mxCell>
        <mxCell id="hZAb5yGBT-T0NqIuAjGt-76" style="edgeStyle=orthogonalEdgeStyle;rounded=0;orthogonalLoop=1;jettySize=auto;html=1;exitX=0.5;exitY=1;exitDx=0;exitDy=0;" edge="1" parent="WIyWlLk6GJQsqaUBKTNV-1" source="hZAb5yGBT-T0NqIuAjGt-61" target="hZAb5yGBT-T0NqIuAjGt-74">
          <mxGeometry relative="1" as="geometry" />
        </mxCell>
        <mxCell id="hZAb5yGBT-T0NqIuAjGt-61" value="Transaksi Gagal" style="shape=parallelogram;html=1;strokeWidth=2;perimeter=parallelogramPerimeter;whiteSpace=wrap;rounded=1;arcSize=12;size=0.23;" vertex="1" parent="WIyWlLk6GJQsqaUBKTNV-1">
          <mxGeometry x="1987.5" y="715" width="160" height="50" as="geometry" />
        </mxCell>
        <mxCell id="hZAb5yGBT-T0NqIuAjGt-75" style="edgeStyle=orthogonalEdgeStyle;rounded=0;orthogonalLoop=1;jettySize=auto;html=1;exitX=0.5;exitY=1;exitDx=0;exitDy=0;entryX=0.5;entryY=0;entryDx=0;entryDy=0;entryPerimeter=0;" edge="1" parent="WIyWlLk6GJQsqaUBKTNV-1" source="hZAb5yGBT-T0NqIuAjGt-62" target="hZAb5yGBT-T0NqIuAjGt-73">
          <mxGeometry relative="1" as="geometry" />
        </mxCell>
        <mxCell id="hZAb5yGBT-T0NqIuAjGt-62" value="Transaksi Ada" style="shape=parallelogram;html=1;strokeWidth=2;perimeter=parallelogramPerimeter;whiteSpace=wrap;rounded=1;arcSize=12;size=0.23;" vertex="1" parent="WIyWlLk6GJQsqaUBKTNV-1">
          <mxGeometry x="1640" y="715" width="160" height="50" as="geometry" />
        </mxCell>
        <mxCell id="hZAb5yGBT-T0NqIuAjGt-68" style="edgeStyle=orthogonalEdgeStyle;rounded=0;orthogonalLoop=1;jettySize=auto;html=1;exitX=0.5;exitY=1;exitDx=0;exitDy=0;entryX=0.5;entryY=0;entryDx=0;entryDy=0;entryPerimeter=0;" edge="1" parent="WIyWlLk6GJQsqaUBKTNV-1" source="hZAb5yGBT-T0NqIuAjGt-66" target="hZAb5yGBT-T0NqIuAjGt-67">
          <mxGeometry relative="1" as="geometry" />
        </mxCell>
        <mxCell id="hZAb5yGBT-T0NqIuAjGt-66" value="Kirim Pesan Konfirmasi" style="rounded=1;whiteSpace=wrap;html=1;fontSize=12;glass=0;strokeWidth=1;shadow=0;" vertex="1" parent="WIyWlLk6GJQsqaUBKTNV-1">
          <mxGeometry x="1595" y="380" width="90" height="80" as="geometry" />
        </mxCell>
        <mxCell id="hZAb5yGBT-T0NqIuAjGt-67" value="END" style="strokeWidth=2;html=1;shape=mxgraph.flowchart.terminator;whiteSpace=wrap;" vertex="1" parent="WIyWlLk6GJQsqaUBKTNV-1">
          <mxGeometry x="1590" y="490" width="100" height="40" as="geometry" />
        </mxCell>
        <mxCell id="hZAb5yGBT-T0NqIuAjGt-70" style="edgeStyle=orthogonalEdgeStyle;rounded=0;orthogonalLoop=1;jettySize=auto;html=1;exitX=1;exitY=0.5;exitDx=0;exitDy=0;exitPerimeter=0;entryX=0.5;entryY=0;entryDx=0;entryDy=0;" edge="1" parent="WIyWlLk6GJQsqaUBKTNV-1" source="hZAb5yGBT-T0NqIuAjGt-69" target="hZAb5yGBT-T0NqIuAjGt-66">
          <mxGeometry relative="1" as="geometry" />
        </mxCell>
        <mxCell id="hZAb5yGBT-T0NqIuAjGt-69" value="A" style="verticalLabelPosition=bottom;verticalAlign=top;html=1;shape=mxgraph.flowchart.on-page_reference;" vertex="1" parent="WIyWlLk6GJQsqaUBKTNV-1">
          <mxGeometry x="1490" y="300" width="60" height="60" as="geometry" />
        </mxCell>
        <mxCell id="hZAb5yGBT-T0NqIuAjGt-73" value="A" style="verticalLabelPosition=bottom;verticalAlign=top;html=1;shape=mxgraph.flowchart.on-page_reference;" vertex="1" parent="WIyWlLk6GJQsqaUBKTNV-1">
          <mxGeometry x="1670" y="790" width="60" height="60" as="geometry" />
        </mxCell>
        <mxCell id="hZAb5yGBT-T0NqIuAjGt-74" value="A" style="verticalLabelPosition=bottom;verticalAlign=top;html=1;shape=mxgraph.flowchart.on-page_reference;" vertex="1" parent="WIyWlLk6GJQsqaUBKTNV-1">
          <mxGeometry x="2038" y="790" width="60" height="60" as="geometry" />
        </mxCell>
        <mxCell id="hZAb5yGBT-T0NqIuAjGt-77" value="FLOWCHART PROSES" style="text;html=1;align=center;verticalAlign=middle;resizable=0;points=[];autosize=1;" vertex="1" parent="WIyWlLk6GJQsqaUBKTNV-1">
          <mxGeometry x="1450" y="60" width="140" height="20" as="geometry" />
        </mxCell>
        <mxCell id="hZAb5yGBT-T0NqIuAjGt-78" value="YA" style="text;html=1;align=center;verticalAlign=middle;resizable=0;points=[];autosize=1;" vertex="1" parent="WIyWlLk6GJQsqaUBKTNV-1">
          <mxGeometry x="1905" y="400" width="30" height="20" as="geometry" />
        </mxCell>
        <mxCell id="hZAb5yGBT-T0NqIuAjGt-79" value="TIDAK" style="text;html=1;align=center;verticalAlign=middle;resizable=0;points=[];autosize=1;" vertex="1" parent="WIyWlLk6GJQsqaUBKTNV-1">
          <mxGeometry x="1945" y="715" width="50" height="20" as="geometry" />
        </mxCell>
        <mxCell id="hZAb5yGBT-T0NqIuAjGt-81" value="YA" style="text;html=1;align=center;verticalAlign=middle;resizable=0;points=[];autosize=1;" vertex="1" parent="WIyWlLk6GJQsqaUBKTNV-1">
          <mxGeometry x="1805" y="720" width="30" height="20" as="geometry" />
        </mxCell>
      </root>
    </mxGraphModel>
  </diagram>
</mxfile>
